<svg width="25" height="25" viewBox="0 0 25 25" fill="none" xmlns="http://www.w3.org/2000/svg">
<path d="M5.92969 17.5H9.92969C11.5865 17.5 12.9297 18.8431 12.9297 20.5V10.5C12.9297 7.67157 12.9297 6.25736 12.051 5.37868C11.1723 4.5 9.75811 4.5 6.92969 4.5H5.92969C4.98688 4.5 4.51547 4.5 4.22258 4.79289C3.92969 5.08579 3.92969 5.55719 3.92969 6.5V15.5C3.92969 16.4428 3.92969 16.9142 4.22258 17.2071C4.51547 17.5 4.98688 17.5 5.92969 17.5Z" stroke="#6F6F6F" stroke-width="1.5"/>
<path d="M19.9297 17.5H15.9297C14.2728 17.5 12.9297 18.8431 12.9297 20.5V10.5C12.9297 7.67157 12.9297 6.25736 13.8084 5.37868C14.687 4.5 16.1013 4.5 18.9297 4.5H19.9297C20.8725 4.5 21.3439 4.5 21.6368 4.79289C21.9297 5.08579 21.9297 5.55719 21.9297 6.5V15.5C21.9297 16.4428 21.9297 16.9142 21.6368 17.2071C21.3439 17.5 20.8725 17.5 19.9297 17.5Z" stroke="#6F6F6F" stroke-width="1.5"/>
</svg>
