<svg width="28" height="29" viewBox="0 0 28 29" fill="none" xmlns="http://www.w3.org/2000/svg">
<g clip-path="url(#clip0_2819_1718)">
<path d="M21 2.25C21.4641 2.25 21.9092 2.43437 22.2374 2.76256C22.5656 3.09075 22.75 3.53587 22.75 4V25C22.75 25.4641 22.5656 25.9092 22.2374 26.2374C21.9092 26.5656 21.4641 26.75 21 26.75H7C6.53587 26.75 6.09075 26.5656 5.76256 26.2374C5.43437 25.9092 5.25 25.4641 5.25 25V4C5.25 3.53587 5.43437 3.09075 5.76256 2.76256C6.09075 2.43437 6.53587 2.25 7 2.25H21ZM7 0.5C6.07174 0.5 5.1815 0.868749 4.52513 1.52513C3.86875 2.1815 3.5 3.07174 3.5 4V25C3.5 25.9283 3.86875 26.8185 4.52513 27.4749C5.1815 28.1313 6.07174 28.5 7 28.5H21C21.9283 28.5 22.8185 28.1313 23.4749 27.4749C24.1313 26.8185 24.5 25.9283 24.5 25V4C24.5 3.07174 24.1313 2.1815 23.4749 1.52513C22.8185 0.868749 21.9283 0.5 21 0.5L7 0.5Z" fill="#EDEDED"/>
<path d="M7 4.875C7 4.64294 7.09219 4.42038 7.25628 4.25628C7.42038 4.09219 7.64294 4 7.875 4H20.125C20.3571 4 20.5796 4.09219 20.7437 4.25628C20.9078 4.42038 21 4.64294 21 4.875V8.375C21 8.60706 20.9078 8.82962 20.7437 8.99372C20.5796 9.15781 20.3571 9.25 20.125 9.25H7.875C7.64294 9.25 7.42038 9.15781 7.25628 8.99372C7.09219 8.82962 7 8.60706 7 8.375V4.875ZM7 11.875C7 11.6429 7.09219 11.4204 7.25628 11.2563C7.42038 11.0922 7.64294 11 7.875 11H9.625C9.85706 11 10.0796 11.0922 10.2437 11.2563C10.4078 11.4204 10.5 11.6429 10.5 11.875V13.625C10.5 13.8571 10.4078 14.0796 10.2437 14.2437C10.0796 14.4078 9.85706 14.5 9.625 14.5H7.875C7.64294 14.5 7.42038 14.4078 7.25628 14.2437C7.09219 14.0796 7 13.8571 7 13.625V11.875ZM7 17.125C7 16.8929 7.09219 16.6704 7.25628 16.5063C7.42038 16.3422 7.64294 16.25 7.875 16.25H9.625C9.85706 16.25 10.0796 16.3422 10.2437 16.5063C10.4078 16.6704 10.5 16.8929 10.5 17.125V18.875C10.5 19.1071 10.4078 19.3296 10.2437 19.4937C10.0796 19.6578 9.85706 19.75 9.625 19.75H7.875C7.64294 19.75 7.42038 19.6578 7.25628 19.4937C7.09219 19.3296 7 19.1071 7 18.875V17.125ZM7 22.375C7 22.1429 7.09219 21.9204 7.25628 21.7563C7.42038 21.5922 7.64294 21.5 7.875 21.5H9.625C9.85706 21.5 10.0796 21.5922 10.2437 21.7563C10.4078 21.9204 10.5 22.1429 10.5 22.375V24.125C10.5 24.3571 10.4078 24.5796 10.2437 24.7437C10.0796 24.9078 9.85706 25 9.625 25H7.875C7.64294 25 7.42038 24.9078 7.25628 24.7437C7.09219 24.5796 7 24.3571 7 24.125V22.375ZM12.25 11.875C12.25 11.6429 12.3422 11.4204 12.5063 11.2563C12.6704 11.0922 12.8929 11 13.125 11H14.875C15.1071 11 15.3296 11.0922 15.4937 11.2563C15.6578 11.4204 15.75 11.6429 15.75 11.875V13.625C15.75 13.8571 15.6578 14.0796 15.4937 14.2437C15.3296 14.4078 15.1071 14.5 14.875 14.5H13.125C12.8929 14.5 12.6704 14.4078 12.5063 14.2437C12.3422 14.0796 12.25 13.8571 12.25 13.625V11.875ZM12.25 17.125C12.25 16.8929 12.3422 16.6704 12.5063 16.5063C12.6704 16.3422 12.8929 16.25 13.125 16.25H14.875C15.1071 16.25 15.3296 16.3422 15.4937 16.5063C15.6578 16.6704 15.75 16.8929 15.75 17.125V18.875C15.75 19.1071 15.6578 19.3296 15.4937 19.4937C15.3296 19.6578 15.1071 19.75 14.875 19.75H13.125C12.8929 19.75 12.6704 19.6578 12.5063 19.4937C12.3422 19.3296 12.25 19.1071 12.25 18.875V17.125ZM12.25 22.375C12.25 22.1429 12.3422 21.9204 12.5063 21.7563C12.6704 21.5922 12.8929 21.5 13.125 21.5H14.875C15.1071 21.5 15.3296 21.5922 15.4937 21.7563C15.6578 21.9204 15.75 22.1429 15.75 22.375V24.125C15.75 24.3571 15.6578 24.5796 15.4937 24.7437C15.3296 24.9078 15.1071 25 14.875 25H13.125C12.8929 25 12.6704 24.9078 12.5063 24.7437C12.3422 24.5796 12.25 24.3571 12.25 24.125V22.375ZM17.5 11.875C17.5 11.6429 17.5922 11.4204 17.7563 11.2563C17.9204 11.0922 18.1429 11 18.375 11H20.125C20.3571 11 20.5796 11.0922 20.7437 11.2563C20.9078 11.4204 21 11.6429 21 11.875V13.625C21 13.8571 20.9078 14.0796 20.7437 14.2437C20.5796 14.4078 20.3571 14.5 20.125 14.5H18.375C18.1429 14.5 17.9204 14.4078 17.7563 14.2437C17.5922 14.0796 17.5 13.8571 17.5 13.625V11.875ZM17.5 17.125C17.5 16.8929 17.5922 16.6704 17.7563 16.5063C17.9204 16.3422 18.1429 16.25 18.375 16.25H20.125C20.3571 16.25 20.5796 16.3422 20.7437 16.5063C20.9078 16.6704 21 16.8929 21 17.125V24.125C21 24.3571 20.9078 24.5796 20.7437 24.7437C20.5796 24.9078 20.3571 25 20.125 25H18.375C18.1429 25 17.9204 24.9078 17.7563 24.7437C17.5922 24.5796 17.5 24.3571 17.5 24.125V17.125Z" fill="#EDEDED"/>
</g>
<defs>
<clipPath id="clip0_2819_1718">
<rect width="28" height="28" fill="white" transform="translate(0 0.5)"/>
</clipPath>
</defs>
</svg>
