<svg width="25" height="25" viewBox="0 0 25 25" fill="none" xmlns="http://www.w3.org/2000/svg">
<path d="M22.4824 11.5V9.5C22.4824 4.5 20.4824 2.5 15.4824 2.5H9.48242C4.48242 2.5 2.48242 4.5 2.48242 9.5V15.5C2.48242 20.5 4.48242 22.5 9.48242 22.5H10.4824" stroke="#6F6F6F" stroke-width="1.5" stroke-linecap="round" stroke-linejoin="round"/>
<path d="M2.5127 9H22.4827" stroke="#6F6F6F" stroke-width="1.5" stroke-linecap="round" stroke-linejoin="round"/>
<path d="M2.5127 16H12.4827" stroke="#6F6F6F" stroke-width="1.5" stroke-linecap="round" stroke-linejoin="round"/>
<path d="M8.99219 22.4897V2.50977" stroke="#6F6F6F" stroke-width="1.5" stroke-linecap="round" stroke-linejoin="round"/>
<path d="M15.9922 12.4897V2.50977" stroke="#6F6F6F" stroke-width="1.5" stroke-linecap="round" stroke-linejoin="round"/>
<path d="M19.2128 15.1701L15.0629 19.32C14.9029 19.48 14.7528 19.79 14.7128 20.01L14.4828 21.6C14.4028 22.17 14.8029 22.58 15.3729 22.49L16.9628 22.26C17.1828 22.23 17.4928 22.0701 17.6528 21.9101L21.8029 17.76C22.5129 17.05 22.8529 16.2101 21.8029 15.1601C20.7629 14.1201 19.9328 14.4501 19.2128 15.1701Z" stroke="#6F6F6F" stroke-width="1.5" stroke-miterlimit="10" stroke-linecap="round" stroke-linejoin="round"/>
<path d="M18.623 15.7598C18.973 17.0198 19.963 17.9997 21.223 18.3597" stroke="#6F6F6F" stroke-width="1.5" stroke-miterlimit="10" stroke-linecap="round" stroke-linejoin="round"/>
</svg>
