<svg width="29" height="29" viewBox="0 0 29 29" fill="none" xmlns="http://www.w3.org/2000/svg">
<path d="M5.93848 15.3861C5.93848 13.8021 5.93848 13.0101 6.25868 12.3139C6.57889 11.6177 7.18024 11.1022 8.38294 10.0713L9.5496 9.07134C11.7235 7.20803 12.8104 6.27637 14.1051 6.27637C15.3999 6.27637 16.4868 7.20803 18.6607 9.07134L19.8273 10.0713C21.0301 11.1022 21.6314 11.6177 21.9516 12.3139C22.2718 13.0101 22.2718 13.8021 22.2718 15.3861V20.3333C22.2718 22.5331 22.2718 23.6331 21.5884 24.3165C20.905 24.9999 19.805 24.9999 17.6051 24.9999H10.6051C8.40526 24.9999 7.30531 24.9999 6.62189 24.3165C5.93848 23.6331 5.93848 22.5331 5.93848 20.3333V15.3861Z" fill="#0A7212"/>
<path d="M17.0218 25V19C17.0218 18.4477 16.5741 18 16.0218 18H12.1885C11.6362 18 11.1885 18.4477 11.1885 19V25" stroke="#FCFBFB" stroke-width="1.5" stroke-linecap="round" stroke-linejoin="round"/>
</svg>
