<svg width="27" height="28" viewBox="0 0 27 28" fill="none" xmlns="http://www.w3.org/2000/svg">
<path d="M21.294 0.5H5.706C2.55466 0.5 0 3.05465 0 6.20599V21.794C0 24.9453 2.55466 27.5 5.706 27.5H21.294C24.4453 27.5 27 24.9453 27 21.794V6.20599C27 3.05465 24.4453 0.5 21.294 0.5Z" fill="#FFF8E8"/>
<path d="M12.3593 4.66762C12.307 4.65878 12.2535 4.65878 12.2012 4.66762C12.0636 4.69205 12.0193 4.74222 11.9659 4.78529C11.9123 4.82973 11.8616 4.87759 11.8142 4.92862C11.7146 5.03341 11.6104 5.1588 11.5063 5.28222C11.4034 5.40694 11.3006 5.52906 11.2202 5.61778C11.194 5.64682 11.1668 5.67489 11.1386 5.70198C11.109 5.70198 11.073 5.69429 11.0241 5.68915C10.9065 5.67308 10.7509 5.64542 10.5928 5.61778C10.434 5.59013 10.2739 5.56185 10.1299 5.54578C10.0614 5.53756 9.99252 5.53369 9.92356 5.5342C9.85478 5.5342 9.78728 5.52779 9.66706 5.59722C9.54685 5.66793 9.52306 5.72964 9.48706 5.78814C9.45235 5.84729 9.42406 5.9077 9.39449 5.97456C9.33663 6.10699 9.27878 6.26126 9.22413 6.41362C9.16885 6.56598 9.11485 6.71642 9.06985 6.82827C9.05056 6.8752 9.03385 6.90991 9.02035 6.93755C8.98293 6.94813 8.9452 6.95757 8.9072 6.96584C8.79149 6.99155 8.63656 7.01921 8.47778 7.04749C8.31963 7.07578 8.15892 7.10536 8.01878 7.14072C7.94806 7.15808 7.88378 7.17607 7.82013 7.20114C7.75585 7.22621 7.69028 7.24037 7.60156 7.34644C7.51285 7.45315 7.51156 7.52001 7.4987 7.58751C7.48585 7.65501 7.47878 7.72119 7.47363 7.79319C7.46399 7.93847 7.46399 8.10372 7.46335 8.26572C7.46335 8.42836 7.46335 8.58843 7.45885 8.70929C7.45628 8.76072 7.45242 8.79736 7.44856 8.82822C7.42413 8.84622 7.39456 8.86869 7.35213 8.89633C7.2512 8.96062 7.11299 9.04034 6.97413 9.12198C6.83463 9.20363 6.69449 9.2872 6.57492 9.3682C6.51698 9.40636 6.46158 9.44827 6.40906 9.4936C6.35763 9.53924 6.30106 9.57524 6.25478 9.70446C6.20785 9.83431 6.22778 9.89794 6.23806 9.96609C6.24835 10.0336 6.2657 10.0985 6.28563 10.1679C6.32613 10.3074 6.38078 10.4623 6.43542 10.6147C6.49006 10.7677 6.54342 10.9181 6.57942 11.0325C6.59485 11.082 6.60513 11.1187 6.6122 11.1483C6.59549 11.174 6.57363 11.2075 6.54149 11.248C6.46949 11.3431 6.36792 11.4646 6.26506 11.5893C6.16156 11.714 6.05806 11.8413 5.9732 11.9583C5.93173 12.0141 5.89394 12.0725 5.86006 12.1331C5.82792 12.1936 5.78613 12.2463 5.78613 12.3839C5.78613 12.5221 5.82728 12.5748 5.86006 12.6352C5.89285 12.6956 5.93078 12.7509 5.9732 12.8101C6.05806 12.9271 6.16156 13.0543 6.26442 13.179C6.36728 13.3038 6.46949 13.4253 6.54213 13.5204C6.57299 13.5615 6.59549 13.5937 6.61285 13.6194C6.60312 13.6584 6.59197 13.697 6.57942 13.7351C6.54342 13.8495 6.48942 14.0006 6.43542 14.153C6.38078 14.306 6.32613 14.4596 6.28563 14.5991C6.2655 14.6657 6.24961 14.7336 6.23806 14.8023C6.22778 14.8704 6.20785 14.9341 6.25478 15.0633C6.30106 15.1931 6.35763 15.2291 6.40906 15.2748C6.46049 15.3198 6.51449 15.3597 6.57492 15.4002C6.69449 15.4812 6.83463 15.5647 6.97349 15.6463C7.11299 15.728 7.2512 15.807 7.35213 15.8713C7.39456 15.8977 7.42413 15.9202 7.44856 15.9389C7.45178 15.9697 7.45628 16.0076 7.45885 16.059C7.46335 16.1799 7.46335 16.34 7.46335 16.5026C7.46399 16.6646 7.46399 16.8286 7.47363 16.9732C7.47813 17.0459 7.48585 17.1133 7.49935 17.1802C7.5122 17.2477 7.51285 17.3152 7.6022 17.4213C7.69028 17.528 7.75649 17.5421 7.82078 17.5672C7.88378 17.5923 7.9487 17.6115 8.01878 17.6289C8.15892 17.6636 8.31963 17.6932 8.47778 17.7215C8.63656 17.7504 8.79149 17.7781 8.9072 17.8038C8.95606 17.8147 8.99142 17.8243 9.02035 17.8327C9.03385 17.8603 9.05056 17.8951 9.0692 17.942C9.09878 18.0127 9.13413 18.1136 9.16885 18.2081L7.4717 21.0997C7.43707 21.1588 7.42081 21.2269 7.42498 21.2953C7.42915 21.3636 7.45358 21.4292 7.49514 21.4837C7.53671 21.5381 7.59353 21.579 7.65839 21.6011C7.72325 21.6231 7.7932 21.6254 7.85935 21.6076L9.41249 21.191L9.82906 22.7454C9.84697 22.811 9.88387 22.8699 9.93512 22.9147C9.98637 22.9594 10.0497 22.988 10.1171 22.9968C10.1846 23.0057 10.2531 22.9944 10.3142 22.9644C10.3752 22.9344 10.4261 22.8871 10.4603 22.8283L12.063 20.0551C12.0964 20.0744 12.1376 20.0917 12.2012 20.1026C12.3381 20.1271 12.3973 20.0949 12.4622 20.0724C12.5265 20.0499 12.5882 20.0229 12.6531 19.9908C12.7817 19.9265 12.9244 19.8455 13.0633 19.7645C13.2028 19.6835 13.3397 19.6031 13.4451 19.5472C13.4895 19.524 13.5223 19.5086 13.5493 19.4958C13.5769 19.5086 13.6097 19.524 13.6534 19.5472C13.7588 19.6031 13.8958 19.6835 14.0353 19.7645C14.1748 19.8455 14.3162 19.9265 14.4461 19.9908C14.5103 20.0229 14.5721 20.0499 14.637 20.0724C14.7013 20.0949 14.7604 20.1271 14.898 20.1026C14.9461 20.095 14.9925 20.0789 15.0349 20.0551L16.6356 22.8283C16.6699 22.8871 16.7207 22.9344 16.7818 22.9644C16.8429 22.9944 16.9114 23.0057 16.9789 22.9968C17.0463 22.988 17.1096 22.9594 17.1609 22.9147C17.2121 22.8699 17.249 22.811 17.2669 22.7454L17.6841 21.1923L19.236 21.6095C19.3021 21.6271 19.372 21.6246 19.4368 21.6024C19.5015 21.5802 19.5582 21.5392 19.5996 21.4847C19.641 21.4302 19.6653 21.3646 19.6693 21.2963C19.6734 21.228 19.657 21.16 19.6223 21.101L17.9291 18.2127C17.9638 18.1169 17.9998 18.0147 18.0293 17.9414C18.0486 17.8944 18.0647 17.8597 18.0782 17.8321C18.1071 17.8243 18.1425 17.8147 18.1913 17.8038C18.3071 17.7781 18.4626 17.751 18.6208 17.7221C18.7789 17.6938 18.9403 17.6643 19.0804 17.6289C19.1477 17.6127 19.2139 17.5921 19.2784 17.5672C19.3427 17.5421 19.4083 17.528 19.497 17.4213C19.5857 17.3152 19.587 17.2477 19.5998 17.1802C19.6127 17.1133 19.6204 17.0452 19.6256 16.9732C19.6346 16.8286 19.6346 16.6646 19.6352 16.5026C19.6352 16.34 19.6352 16.1799 19.6403 16.059C19.6423 16.0076 19.6468 15.9691 19.65 15.9389C19.6744 15.9209 19.7046 15.8983 19.7464 15.8707C19.8473 15.8064 19.9843 15.728 20.1238 15.6457C20.2626 15.5647 20.4034 15.4812 20.5223 15.4002C20.5828 15.3597 20.6374 15.3198 20.6888 15.2748C20.7403 15.2291 20.7962 15.1931 20.8431 15.0633C20.8901 14.9341 20.8701 14.8704 20.8592 14.8023C20.8477 14.7336 20.8318 14.6657 20.8116 14.5991C20.7665 14.4489 20.7168 14.3001 20.6625 14.153C20.6119 14.0145 20.5637 13.8752 20.5178 13.7351C20.5058 13.6969 20.495 13.6584 20.4857 13.6194C20.5018 13.5937 20.5243 13.5615 20.5558 13.5204C20.6284 13.4253 20.7293 13.3038 20.8328 13.179C20.9357 13.0543 21.0405 12.9271 21.1253 12.8101C21.1678 12.7516 21.2057 12.6956 21.2385 12.6352C21.2713 12.5748 21.3124 12.5221 21.3124 12.3845C21.3124 12.2463 21.2713 12.1936 21.2385 12.1331C21.2046 12.0725 21.1668 12.0141 21.1253 11.9583C21.0405 11.8413 20.9363 11.714 20.8328 11.5893C20.73 11.4646 20.6284 11.3418 20.5558 11.2466C20.5311 11.2149 20.5075 11.1823 20.4851 11.1489C20.4921 11.1187 20.5024 11.082 20.5178 11.0332C20.5538 10.9181 20.6078 10.7677 20.6625 10.6154C20.7171 10.4624 20.7718 10.3074 20.8116 10.1679C20.8316 10.0985 20.8489 10.0336 20.8592 9.96609C20.8701 9.89794 20.8901 9.83431 20.8431 9.70446C20.7962 9.57524 20.7403 9.53924 20.6888 9.4936C20.6364 9.44821 20.581 9.40629 20.523 9.3682C20.3925 9.28199 20.2594 9.19989 20.1238 9.12198C19.9849 9.04034 19.8473 8.96062 19.7471 8.89633C19.7141 8.87483 19.6819 8.85213 19.6506 8.82822C19.6468 8.79736 19.6423 8.76008 19.6403 8.70929C19.6352 8.58843 19.6358 8.42836 19.6352 8.26572C19.6352 8.10372 19.6352 7.9385 19.6249 7.79386C19.621 7.72482 19.6126 7.6561 19.5998 7.58814C19.587 7.52064 19.5857 7.45315 19.497 7.34644C19.4083 7.24037 19.3427 7.22621 19.2784 7.20114C19.2141 7.17607 19.1498 7.15808 19.0804 7.14072C18.9282 7.10492 18.7749 7.07382 18.6208 7.04749C18.4626 7.01921 18.3077 6.99155 18.1913 6.96584C18.1533 6.95735 18.1156 6.94772 18.0782 6.93692C18.0607 6.90107 18.0444 6.86463 18.0293 6.82765C17.9843 6.71643 17.9303 6.56598 17.8751 6.41362C17.8226 6.26532 17.7656 6.11871 17.7041 5.97393C17.6772 5.91009 17.6463 5.84803 17.6115 5.78814C17.5761 5.73029 17.5511 5.66727 17.4315 5.59785C17.3113 5.52713 17.2438 5.53549 17.1756 5.5342C17.1068 5.5342 17.04 5.54063 16.9686 5.54578C16.8246 5.56121 16.6646 5.58949 16.5058 5.61778C16.3483 5.64542 16.1921 5.67372 16.0744 5.68915C16.0364 5.69437 15.9982 5.69863 15.96 5.70198C15.9318 5.67464 15.9046 5.64636 15.8783 5.61715C15.7811 5.50714 15.6857 5.39548 15.5923 5.28222C15.4888 5.15815 15.3833 5.03148 15.2837 4.9267C15.2365 4.87626 15.1861 4.82903 15.1326 4.78529C15.0793 4.74157 15.0356 4.69012 14.898 4.66569C14.7604 4.64127 14.7013 4.67215 14.637 4.69465C14.5716 4.71821 14.5079 4.74588 14.4461 4.77756C14.3162 4.84184 14.1748 4.92285 14.0353 5.00321C13.8958 5.08421 13.7588 5.16458 13.6534 5.2205C13.6097 5.24365 13.5769 5.25714 13.5493 5.26935C13.5216 5.25714 13.4895 5.24365 13.4451 5.2205C13.3397 5.16458 13.2028 5.08421 13.0633 5.00321C12.9289 4.92376 12.7922 4.8485 12.6531 4.77756C12.5882 4.74542 12.5271 4.71713 12.4622 4.69398C12.4301 4.68306 12.3992 4.66956 12.3593 4.66185V4.66762ZM12.3188 5.34006C12.3362 5.34777 12.3465 5.34971 12.3677 5.35999C12.4686 5.41013 12.6036 5.48664 12.7406 5.56571C12.8781 5.64607 13.0183 5.72836 13.1436 5.79458C13.2066 5.82801 13.2658 5.85884 13.3249 5.88263C13.3841 5.90706 13.4316 5.93536 13.5499 5.93536C13.6676 5.93536 13.7138 5.90706 13.773 5.88263C13.8346 5.85616 13.8949 5.82679 13.9536 5.79458C14.0796 5.72836 14.2204 5.64605 14.358 5.56634C14.4956 5.48662 14.6299 5.41012 14.7308 5.36062C14.7527 5.34905 14.7623 5.34777 14.7797 5.34006C14.7938 5.35356 14.8022 5.35935 14.8183 5.37671C14.8967 5.45899 14.9983 5.57858 15.0998 5.70072C15.2027 5.82287 15.3056 5.94949 15.4013 6.05492C15.4489 6.10763 15.4933 6.15457 15.5408 6.19829C15.5878 6.242 15.6225 6.2844 15.7331 6.3249C15.843 6.3654 15.897 6.35514 15.9613 6.35257C16.0256 6.35257 16.0905 6.34357 16.1606 6.33393C16.302 6.31464 16.4621 6.28571 16.6183 6.25871C16.7738 6.23107 16.9268 6.20536 17.0387 6.19315C17.0625 6.19315 17.0721 6.19314 17.0914 6.18671L17.1152 6.23686C17.1608 6.341 17.2161 6.48886 17.2708 6.63864C17.3254 6.78907 17.3801 6.94335 17.4341 7.07578C17.4611 7.142 17.4874 7.20176 17.517 7.25898C17.5466 7.31683 17.5646 7.36829 17.6539 7.44351C17.7439 7.51937 17.7973 7.52836 17.8583 7.54764C17.9194 7.56757 17.9824 7.58365 18.0518 7.59908C18.1907 7.62994 18.3501 7.65755 18.5063 7.68584C18.6626 7.71412 18.8149 7.74178 18.9242 7.76878C18.9486 7.77521 18.9583 7.77969 18.9776 7.78483C18.9795 7.80476 18.9821 7.8157 18.984 7.84141C18.9911 7.9552 18.9917 8.11144 18.9923 8.27215C18.9923 8.43222 18.9923 8.59612 18.9988 8.73884C19.0013 8.81084 19.0052 8.87644 19.0136 8.94008C19.0226 9.00373 19.0226 9.05836 19.0804 9.15993C19.1383 9.26086 19.1852 9.28847 19.236 9.32833C19.2868 9.36819 19.3408 9.40551 19.4006 9.44408C19.5201 9.51994 19.6616 9.60158 19.7985 9.68193C19.9354 9.76229 20.0691 9.84266 20.1623 9.90566C20.1836 9.91981 20.1919 9.92751 20.2073 9.93972C20.2028 9.95901 20.2009 9.97123 20.1945 9.9963C20.1623 10.1056 20.1109 10.2534 20.0569 10.4045C20.0036 10.5549 19.9476 10.7073 19.9052 10.8436C19.8842 10.9076 19.8662 10.9726 19.8512 11.0384C19.8377 11.1014 19.8191 11.1521 19.8383 11.2672C19.8589 11.3816 19.8936 11.4234 19.9283 11.478C19.9618 11.5327 20.001 11.5874 20.0441 11.6433C20.1315 11.7571 20.2356 11.8811 20.3372 12.0039C20.4388 12.1267 20.5378 12.2482 20.6046 12.3402C20.6201 12.3614 20.6258 12.3723 20.6368 12.389C20.6258 12.4063 20.6201 12.4166 20.6046 12.4379C20.5378 12.5304 20.4388 12.65 20.3372 12.7734C20.2356 12.8962 20.1315 13.0216 20.0447 13.1347C20.001 13.1913 19.9618 13.244 19.9277 13.298C19.8936 13.3526 19.8589 13.397 19.8383 13.5115C19.8191 13.6265 19.8377 13.6773 19.8512 13.7403C19.8647 13.8033 19.8833 13.8657 19.9052 13.9332C19.9483 14.0701 20.0036 14.2237 20.0569 14.3741C20.1109 14.5245 20.1623 14.6731 20.1938 14.7823C20.2009 14.8074 20.2028 14.819 20.208 14.8389L20.163 14.873C20.0691 14.9366 19.9354 15.0157 19.7985 15.0967C19.6616 15.1771 19.5201 15.2587 19.3999 15.3346C19.3408 15.3731 19.2868 15.4098 19.236 15.449C19.1852 15.4888 19.1383 15.5165 19.0804 15.6175C19.0226 15.719 19.0226 15.7717 19.0136 15.836C19.0055 15.903 19.0006 15.9704 18.9988 16.0378C18.9923 16.1812 18.9923 16.3438 18.9923 16.5039C18.9923 16.6646 18.9911 16.8209 18.9833 16.9346C18.9821 16.9604 18.9795 16.9719 18.9769 16.9925C18.9583 16.9989 18.9486 17.0015 18.9242 17.0079C18.8149 17.0349 18.6626 17.0639 18.5063 17.0915C18.3501 17.1204 18.1907 17.1481 18.0518 17.1789C17.9868 17.1925 17.9224 17.2093 17.859 17.2291C17.7973 17.2484 17.7433 17.2586 17.6533 17.3345C17.5646 17.4103 17.5466 17.4618 17.517 17.519C17.4865 17.5788 17.4588 17.6399 17.4341 17.7022C17.3801 17.8346 17.3254 17.9889 17.2708 18.1394C17.2228 18.2744 17.171 18.4079 17.1152 18.5398C17.1049 18.563 17.0991 18.5733 17.0901 18.5913C17.0708 18.5913 17.0618 18.5913 17.0387 18.5849C16.898 18.5671 16.7578 18.5452 16.6183 18.5193C16.4621 18.4916 16.3013 18.4627 16.1612 18.4441C16.0951 18.4343 16.0286 18.4276 15.9619 18.4241C15.8976 18.4241 15.843 18.4125 15.7331 18.453C15.6225 18.4935 15.5878 18.5354 15.5402 18.5784C15.4917 18.6245 15.4454 18.6728 15.4013 18.7231C15.3062 18.8285 15.2021 18.9545 15.0998 19.0767C14.9976 19.1988 14.8967 19.3177 14.8189 19.4C14.8022 19.4173 14.7932 19.4244 14.7803 19.438C14.7623 19.4302 14.7521 19.427 14.7308 19.4167C14.6046 19.351 14.4803 19.2818 14.358 19.209C14.2204 19.1293 14.0796 19.0471 13.9536 18.9808C13.8949 18.9489 13.8346 18.9199 13.773 18.894C13.7132 18.8696 13.6676 18.8413 13.5493 18.8413C13.4316 18.8413 13.3841 18.8696 13.3243 18.894C13.2629 18.9205 13.2028 18.95 13.1443 18.9822C13.0183 19.0484 12.8781 19.1307 12.7406 19.2104C12.6036 19.2901 12.4686 19.3666 12.3677 19.4161C12.3465 19.427 12.3362 19.4302 12.3188 19.438C12.3047 19.4244 12.2963 19.418 12.2803 19.3993C12.1833 19.2947 12.0894 19.1874 11.9987 19.0773C11.8965 18.9551 11.793 18.8285 11.6972 18.7231C11.6532 18.6727 11.6068 18.6245 11.5583 18.5784C11.5108 18.5354 11.4767 18.4935 11.3655 18.453C11.2556 18.4125 11.2016 18.4209 11.1373 18.4241C11.073 18.4241 11.0081 18.4345 10.938 18.4435C10.7966 18.4627 10.6365 18.4923 10.4809 18.5193C10.3247 18.5469 10.1723 18.5726 10.0598 18.5849C10.0367 18.5849 10.0277 18.5849 10.0084 18.5913C9.99942 18.5733 9.99363 18.5636 9.98335 18.5398C9.93835 18.4357 9.88242 18.2892 9.82778 18.1394C9.77313 17.9889 9.71849 17.8346 9.66449 17.7022C9.63974 17.6398 9.61207 17.5788 9.58156 17.519C9.55199 17.4612 9.53463 17.4097 9.44463 17.3345C9.35528 17.2586 9.30128 17.2484 9.2402 17.2291C9.17676 17.2093 9.1124 17.1925 9.04735 17.1789C8.90849 17.1481 8.74842 17.1204 8.5922 17.0921C8.43663 17.0638 8.28363 17.0343 8.17435 17.0079C8.14992 17.0015 8.14028 16.9989 8.12163 16.9925C8.11906 16.9719 8.11713 16.9604 8.1152 16.9346C8.10749 16.8209 8.10685 16.6646 8.1062 16.5039C8.1062 16.3432 8.1062 16.1812 8.09978 16.0378C8.09796 15.9704 8.09302 15.903 8.08499 15.836C8.07663 15.7724 8.07663 15.719 8.01878 15.6175C7.96092 15.5165 7.91335 15.4888 7.86256 15.449C7.80936 15.4084 7.75423 15.3704 7.69735 15.3352C7.57713 15.258 7.43635 15.1771 7.29878 15.0967C7.17535 15.0257 7.05401 14.9511 6.93492 14.873C6.9137 14.8588 6.90599 14.8511 6.88992 14.8389C6.89442 14.819 6.89635 14.8074 6.90342 14.7823C6.93492 14.6731 6.98699 14.5252 7.04035 14.3741C7.09435 14.2237 7.14963 14.0701 7.19206 13.9338C7.21392 13.8657 7.23256 13.8033 7.24606 13.7403C7.25956 13.6773 7.27885 13.6265 7.25892 13.5121C7.23899 13.397 7.20363 13.3526 7.16956 13.298C7.13337 13.242 7.09454 13.1877 7.0532 13.1353C6.96642 13.0215 6.86163 12.8962 6.7607 12.7734C6.65913 12.6506 6.56078 12.5304 6.49392 12.4385C6.47849 12.4173 6.4727 12.4064 6.46178 12.3897C6.4727 12.3723 6.47849 12.362 6.49392 12.3408C6.56078 12.2489 6.65913 12.1273 6.7607 12.0039C6.86163 11.8811 6.96642 11.7557 7.0532 11.6426C7.09628 11.586 7.13549 11.5327 7.16956 11.478C7.20363 11.4234 7.23899 11.3816 7.25892 11.2672C7.27885 11.1528 7.25956 11.1014 7.24606 11.0384C7.2311 10.9728 7.21308 10.908 7.19206 10.8442C7.14963 10.7079 7.09435 10.5549 7.04035 10.4045C6.99079 10.2698 6.94512 10.1337 6.90342 9.9963C6.89635 9.97123 6.89442 9.95965 6.88992 9.93972C6.90599 9.92751 6.9137 9.92045 6.93492 9.90566C7.02878 9.84202 7.16185 9.76292 7.29878 9.68256C7.43635 9.60156 7.57713 9.5206 7.69735 9.44345C7.75713 9.40488 7.81242 9.36756 7.86256 9.3277C7.91399 9.28849 7.96028 9.2615 8.01878 9.15993C8.07663 9.05836 8.07663 9.00373 8.08499 8.94008C8.09335 8.87644 8.09785 8.81086 8.10042 8.7395C8.10556 8.59615 8.1062 8.43222 8.10685 8.27215C8.10685 8.11208 8.10749 7.9552 8.1152 7.84141C8.11713 7.8157 8.11906 7.8054 8.12163 7.78483C8.14092 7.7784 8.14992 7.77457 8.17435 7.76878C8.28363 7.74178 8.43663 7.71412 8.5922 7.68584C8.74842 7.65755 8.90849 7.62993 9.0467 7.59971C9.112 7.58571 9.17657 7.56854 9.2402 7.54827C9.30128 7.52834 9.35592 7.52001 9.44463 7.44351C9.53463 7.36765 9.55199 7.31619 9.58156 7.25898C9.61113 7.20176 9.63749 7.142 9.66513 7.07578C9.71849 6.94335 9.77313 6.78907 9.82778 6.63864C9.88242 6.48886 9.9377 6.34163 9.98335 6.23748L10.0071 6.18734C10.0264 6.18734 10.0367 6.18735 10.0598 6.19378C10.1717 6.20599 10.3247 6.23171 10.4809 6.25871C10.6365 6.28636 10.7972 6.31529 10.9373 6.33393C11.0081 6.34357 11.073 6.35129 11.1373 6.35386C11.2016 6.35386 11.2556 6.3654 11.3661 6.3249C11.4761 6.2844 11.5108 6.2433 11.5583 6.19958C11.6068 6.1535 11.6531 6.10522 11.6972 6.05492C11.793 5.94949 11.8965 5.82349 11.9993 5.70135C12.1009 5.57921 12.2018 5.45898 12.2803 5.37733C12.2963 5.35998 12.3053 5.35423 12.3188 5.34073V5.34006ZM13.5493 6.92794C10.5349 6.92794 8.08499 9.37718 8.08499 12.3922C8.08499 15.4059 10.5349 17.8565 13.5493 17.8565C16.5636 17.8565 19.0136 15.4059 19.0136 12.3922C19.0136 9.37718 16.5636 6.92794 13.5493 6.92794ZM13.5493 7.53415C14.1873 7.53364 14.8191 7.65892 15.4086 7.90286C15.9982 8.14679 16.5338 8.50457 16.9849 8.95574C17.436 9.4069 17.7937 9.94256 18.0376 10.5321C18.2814 11.1217 18.4067 11.7536 18.4061 12.3916C18.4067 13.0295 18.2816 13.6614 18.0377 14.251C17.7939 14.8405 17.4362 15.3762 16.9851 15.8274C16.5339 16.2785 15.9982 16.6362 15.4087 16.88C14.8191 17.1239 14.1873 17.2491 13.5493 17.2484C12.9113 17.2491 12.2794 17.1239 11.6899 16.88C11.1003 16.6362 10.5646 16.2785 10.1135 15.8274C9.66237 15.3762 9.30465 14.8405 9.06081 14.251C8.81698 13.6614 8.69181 13.0295 8.69249 12.3916C8.6919 11.7536 8.81711 11.1217 9.06097 10.5321C9.30483 9.94256 9.66255 9.4069 10.1137 8.95574C10.5648 8.50457 11.1004 8.14679 11.6899 7.90286C12.2794 7.65892 12.9113 7.53364 13.5493 7.53415ZM13.5345 9.31483C13.341 9.31483 13.2574 9.41387 13.1925 9.48394C13.1306 9.55423 13.0761 9.63069 13.0298 9.71215C12.9296 9.87865 12.8325 10.0786 12.7367 10.2811C12.6416 10.4842 12.549 10.6887 12.4718 10.8436C12.4413 10.907 12.4083 10.9691 12.3728 11.03L12.36 11.0467C12.3536 11.0467 12.3503 11.0531 12.3413 11.0531C12.2734 11.0691 12.2047 11.0822 12.1356 11.0923C11.9646 11.12 11.7416 11.147 11.5191 11.1779C11.2967 11.2081 11.0756 11.2422 10.8866 11.2884C10.7953 11.3087 10.7063 11.3382 10.6211 11.3765C10.5356 11.417 10.416 11.4665 10.3575 11.6497C10.2996 11.8336 10.3665 11.9441 10.4128 12.0264C10.4597 12.1093 10.5163 12.1781 10.5799 12.2514C10.7072 12.398 10.8679 12.5529 11.0318 12.7059C11.1958 12.8589 11.3623 13.0106 11.4863 13.1315C11.5487 13.1919 11.6001 13.2446 11.6323 13.2819C11.6374 13.2883 11.6381 13.2909 11.6419 13.2967C11.6426 13.305 11.6438 13.3083 11.6432 13.3179C11.6377 13.3883 11.6294 13.4585 11.6181 13.5282C11.5918 13.6992 11.5487 13.9177 11.5088 14.1382C11.4696 14.3587 11.4317 14.5786 11.4176 14.7721C11.4105 14.8685 11.4079 14.9585 11.4201 15.0524C11.4323 15.1462 11.4426 15.2748 11.5995 15.3873C11.7563 15.4998 11.8823 15.4689 11.9749 15.4503C12.0664 15.4304 12.1556 15.4011 12.2411 15.3629C12.4198 15.287 12.6171 15.1822 12.8132 15.0736C13.0099 14.9656 13.2053 14.8537 13.3583 14.774C13.4355 14.7342 13.5023 14.702 13.548 14.6834C13.5576 14.677 13.5615 14.6769 13.5692 14.6769C13.5763 14.6769 13.5795 14.677 13.5872 14.6834C13.6328 14.702 13.7003 14.7335 13.7781 14.7727C13.9324 14.8505 14.1272 14.9592 14.3252 15.0652C14.5232 15.1707 14.7218 15.2754 14.9018 15.3487C14.9918 15.3853 15.0754 15.4155 15.1693 15.4323C15.2625 15.4503 15.3878 15.4798 15.5434 15.3648C15.699 15.2503 15.7093 15.1211 15.7202 15.0273C15.7295 14.9345 15.7291 14.841 15.7189 14.7483C15.7022 14.5554 15.6611 14.3343 15.6186 14.1144C15.5762 13.8946 15.5318 13.676 15.5029 13.5056C15.4905 13.4366 15.4809 13.3672 15.474 13.2974V13.2774L15.4856 13.2614C15.5177 13.2228 15.5672 13.1682 15.6289 13.1071C15.7511 12.9843 15.9163 12.8306 16.0783 12.6763C16.2403 12.5208 16.3997 12.3658 16.5251 12.2173C16.5881 12.1434 16.6427 12.0727 16.6883 11.9891C16.7333 11.9056 16.8008 11.7969 16.7398 11.6137C16.6787 11.4305 16.5585 11.381 16.4723 11.3411C16.3865 11.3033 16.2968 11.2747 16.2049 11.2556C15.9958 11.2118 15.7847 11.1784 15.5723 11.1554C15.3493 11.1277 15.1262 11.1026 14.9546 11.0782C14.8849 11.0685 14.8156 11.056 14.7469 11.0409C14.7386 11.0409 14.7366 11.0345 14.7296 11.0345C14.7244 11.0281 14.7212 11.0255 14.7161 11.0172C14.6801 10.9574 14.6464 10.8963 14.6151 10.8339C14.5361 10.6796 14.4409 10.4771 14.3432 10.2746C14.253 10.0812 14.1532 9.89244 14.0443 9.70893C13.9965 9.62794 13.9405 9.55208 13.8771 9.48261C13.8122 9.41383 13.7273 9.3155 13.5345 9.31742V9.31483ZM13.5396 10.1242C13.6084 10.2444 13.6843 10.3865 13.7646 10.551C13.8591 10.7471 13.9536 10.9522 14.0411 11.1232C14.0861 11.2093 14.1272 11.2865 14.1709 11.3559C14.2146 11.4254 14.2429 11.4845 14.3477 11.559C14.4531 11.6342 14.5181 11.642 14.5978 11.6613C14.6775 11.6806 14.7649 11.6947 14.8601 11.7088C15.0516 11.7371 15.2766 11.7622 15.4933 11.7892C15.6746 11.8117 15.8327 11.8374 15.969 11.8644C15.8758 11.9673 15.7646 12.083 15.6321 12.2097C15.4753 12.3601 15.3094 12.5137 15.1731 12.65C15.1043 12.7188 15.0446 12.7817 14.9918 12.8447C14.9398 12.9077 14.8903 12.9528 14.8517 13.0762C14.8125 13.1984 14.826 13.2626 14.8324 13.3449C14.8388 13.4259 14.8517 13.5134 14.8678 13.6085C14.8999 13.7988 14.9468 14.0199 14.988 14.2333C15.0227 14.4133 15.0471 14.5721 15.0638 14.709C14.9169 14.6433 14.7724 14.5723 14.6306 14.4963C14.4377 14.3934 14.2403 14.2828 14.0681 14.1961C13.9894 14.1553 13.9089 14.118 13.827 14.0842C13.7505 14.0534 13.692 14.0212 13.5634 14.0225C13.4342 14.0225 13.377 14.0566 13.3005 14.0881C13.2253 14.1189 13.1462 14.1587 13.0607 14.2037C12.8897 14.2925 12.693 14.4044 12.5021 14.5098C12.3413 14.5979 12.1973 14.6705 12.0713 14.7283C12.0861 14.5901 12.1099 14.4313 12.1421 14.2507C12.1806 14.0366 12.2237 13.8148 12.2539 13.6245C12.2687 13.5287 12.2796 13.4427 12.2848 13.361C12.2906 13.2787 12.3034 13.2144 12.2623 13.0922C12.2218 12.9701 12.1736 12.9251 12.1208 12.8634C12.062 12.7965 12.0002 12.7321 11.9357 12.6705C11.7981 12.5355 11.6303 12.3845 11.4716 12.236C11.3539 12.1261 11.2403 12.0121 11.1308 11.894C11.2671 11.8657 11.4253 11.8368 11.6066 11.8123C11.8232 11.7828 12.0463 11.7564 12.2372 11.7262C12.333 11.7107 12.4191 11.6941 12.4982 11.6748C12.5779 11.6548 12.6441 11.6472 12.7489 11.57C12.8518 11.4942 12.8788 11.4343 12.9218 11.3643C12.9643 11.2948 13.0054 11.2164 13.0485 11.1296C13.1346 10.9567 13.2272 10.7516 13.3198 10.5542C13.3969 10.389 13.4715 10.2457 13.5396 10.1242ZM9.5012 19.0085C9.53142 19.0612 9.56163 19.1152 9.66706 19.1769C9.78728 19.247 9.85478 19.238 9.92356 19.2399C9.9917 19.2399 10.0586 19.2335 10.1306 19.2283C10.2739 19.2129 10.434 19.1847 10.5928 19.157C10.7509 19.1294 10.9065 19.1017 11.0241 19.085C11.073 19.0785 11.1083 19.0747 11.1386 19.0721C11.1604 19.0933 11.1868 19.1191 11.2202 19.1564C11.3006 19.2451 11.4028 19.3679 11.5063 19.4919C11.5236 19.5125 11.541 19.5305 11.5577 19.551L10.2797 21.7657L9.98978 20.6832C9.96598 20.5948 9.90805 20.5194 9.82873 20.4737C9.7494 20.428 9.65518 20.4157 9.56678 20.4395L8.4932 20.7275L9.5012 19.0085ZM17.5948 19.0149L18.6021 20.7314L17.5286 20.444C17.4402 20.4204 17.346 20.4329 17.2668 20.4787C17.1876 20.5246 17.1299 20.5999 17.1062 20.6883L16.8169 21.7683L15.5376 19.5568C15.5563 19.5343 15.5743 19.5164 15.5923 19.4945C15.6958 19.3705 15.798 19.2482 15.8783 19.1595C15.9124 19.1222 15.9381 19.0965 15.96 19.0753C15.9902 19.0753 16.0256 19.083 16.0744 19.0882C16.1921 19.1043 16.3483 19.1319 16.5064 19.1595C16.6646 19.1872 16.8246 19.2155 16.9686 19.2309C17.04 19.2387 17.1068 19.2438 17.1756 19.2425C17.2438 19.2425 17.3113 19.2495 17.4315 19.1795C17.5015 19.1429 17.5585 19.0851 17.5948 19.0149Z" fill="url(#paint0_linear_2819_8165)"/>
<defs>
<linearGradient id="paint0_linear_2819_8165" x1="7.7394" y1="4.80241" x2="22.4022" y2="20.1362" gradientUnits="userSpaceOnUse">
<stop stop-color="#FFD800"/>
<stop offset="1" stop-color="#FF6100"/>
</linearGradient>
</defs>
</svg>
