<svg width="25" height="25" viewBox="0 0 25 25" fill="none" xmlns="http://www.w3.org/2000/svg">
<g clip-path="url(#clip0_2819_3914)">
<path d="M18.874 2C19.2718 2 19.6534 2.15804 19.9347 2.43934C20.216 2.72064 20.374 3.10218 20.374 3.5V21.5C20.374 21.8978 20.216 22.2794 19.9347 22.5607C19.6534 22.842 19.2718 23 18.874 23H6.87402C6.4762 23 6.09467 22.842 5.81336 22.5607C5.53206 22.2794 5.37402 21.8978 5.37402 21.5V3.5C5.37402 3.10218 5.53206 2.72064 5.81336 2.43934C6.09467 2.15804 6.4762 2 6.87402 2H18.874ZM6.87402 0.5C6.07837 0.5 5.31531 0.816071 4.7527 1.37868C4.19009 1.94129 3.87402 2.70435 3.87402 3.5V21.5C3.87402 22.2956 4.19009 23.0587 4.7527 23.6213C5.31531 24.1839 6.07837 24.5 6.87402 24.5H18.874C19.6697 24.5 20.4327 24.1839 20.9953 23.6213C21.558 23.0587 21.874 22.2956 21.874 21.5V3.5C21.874 2.70435 21.558 1.94129 20.9953 1.37868C20.4327 0.816071 19.6697 0.5 18.874 0.5L6.87402 0.5Z" fill="#6F6F6F"/>
<path d="M6.87402 4.25C6.87402 4.05109 6.95304 3.86032 7.09369 3.71967C7.23435 3.57902 7.42511 3.5 7.62402 3.5H18.124C18.3229 3.5 18.5137 3.57902 18.6544 3.71967C18.795 3.86032 18.874 4.05109 18.874 4.25V7.25C18.874 7.44891 18.795 7.63968 18.6544 7.78033C18.5137 7.92098 18.3229 8 18.124 8H7.62402C7.42511 8 7.23435 7.92098 7.09369 7.78033C6.95304 7.63968 6.87402 7.44891 6.87402 7.25V4.25ZM6.87402 10.25C6.87402 10.0511 6.95304 9.86032 7.09369 9.71967C7.23435 9.57902 7.42511 9.5 7.62402 9.5H9.12402C9.32294 9.5 9.5137 9.57902 9.65435 9.71967C9.79501 9.86032 9.87402 10.0511 9.87402 10.25V11.75C9.87402 11.9489 9.79501 12.1397 9.65435 12.2803C9.5137 12.421 9.32294 12.5 9.12402 12.5H7.62402C7.42511 12.5 7.23435 12.421 7.09369 12.2803C6.95304 12.1397 6.87402 11.9489 6.87402 11.75V10.25ZM6.87402 14.75C6.87402 14.5511 6.95304 14.3603 7.09369 14.2197C7.23435 14.079 7.42511 14 7.62402 14H9.12402C9.32294 14 9.5137 14.079 9.65435 14.2197C9.79501 14.3603 9.87402 14.5511 9.87402 14.75V16.25C9.87402 16.4489 9.79501 16.6397 9.65435 16.7803C9.5137 16.921 9.32294 17 9.12402 17H7.62402C7.42511 17 7.23435 16.921 7.09369 16.7803C6.95304 16.6397 6.87402 16.4489 6.87402 16.25V14.75ZM6.87402 19.25C6.87402 19.0511 6.95304 18.8603 7.09369 18.7197C7.23435 18.579 7.42511 18.5 7.62402 18.5H9.12402C9.32294 18.5 9.5137 18.579 9.65435 18.7197C9.79501 18.8603 9.87402 19.0511 9.87402 19.25V20.75C9.87402 20.9489 9.79501 21.1397 9.65435 21.2803C9.5137 21.421 9.32294 21.5 9.12402 21.5H7.62402C7.42511 21.5 7.23435 21.421 7.09369 21.2803C6.95304 21.1397 6.87402 20.9489 6.87402 20.75V19.25ZM11.374 10.25C11.374 10.0511 11.453 9.86032 11.5937 9.71967C11.7343 9.57902 11.9251 9.5 12.124 9.5H13.624C13.8229 9.5 14.0137 9.57902 14.1544 9.71967C14.295 9.86032 14.374 10.0511 14.374 10.25V11.75C14.374 11.9489 14.295 12.1397 14.1544 12.2803C14.0137 12.421 13.8229 12.5 13.624 12.5H12.124C11.9251 12.5 11.7343 12.421 11.5937 12.2803C11.453 12.1397 11.374 11.9489 11.374 11.75V10.25ZM11.374 14.75C11.374 14.5511 11.453 14.3603 11.5937 14.2197C11.7343 14.079 11.9251 14 12.124 14H13.624C13.8229 14 14.0137 14.079 14.1544 14.2197C14.295 14.3603 14.374 14.5511 14.374 14.75V16.25C14.374 16.4489 14.295 16.6397 14.1544 16.7803C14.0137 16.921 13.8229 17 13.624 17H12.124C11.9251 17 11.7343 16.921 11.5937 16.7803C11.453 16.6397 11.374 16.4489 11.374 16.25V14.75ZM11.374 19.25C11.374 19.0511 11.453 18.8603 11.5937 18.7197C11.7343 18.579 11.9251 18.5 12.124 18.5H13.624C13.8229 18.5 14.0137 18.579 14.1544 18.7197C14.295 18.8603 14.374 19.0511 14.374 19.25V20.75C14.374 20.9489 14.295 21.1397 14.1544 21.2803C14.0137 21.421 13.8229 21.5 13.624 21.5H12.124C11.9251 21.5 11.7343 21.421 11.5937 21.2803C11.453 21.1397 11.374 20.9489 11.374 20.75V19.25ZM15.874 10.25C15.874 10.0511 15.953 9.86032 16.0937 9.71967C16.2343 9.57902 16.4251 9.5 16.624 9.5H18.124C18.3229 9.5 18.5137 9.57902 18.6544 9.71967C18.795 9.86032 18.874 10.0511 18.874 10.25V11.75C18.874 11.9489 18.795 12.1397 18.6544 12.2803C18.5137 12.421 18.3229 12.5 18.124 12.5H16.624C16.4251 12.5 16.2343 12.421 16.0937 12.2803C15.953 12.1397 15.874 11.9489 15.874 11.75V10.25ZM15.874 14.75C15.874 14.5511 15.953 14.3603 16.0937 14.2197C16.2343 14.079 16.4251 14 16.624 14H18.124C18.3229 14 18.5137 14.079 18.6544 14.2197C18.795 14.3603 18.874 14.5511 18.874 14.75V20.75C18.874 20.9489 18.795 21.1397 18.6544 21.2803C18.5137 21.421 18.3229 21.5 18.124 21.5H16.624C16.4251 21.5 16.2343 21.421 16.0937 21.2803C15.953 21.1397 15.874 20.9489 15.874 20.75V14.75Z" fill="#6F6F6F"/>
</g>
<defs>
<clipPath id="clip0_2819_3914">
<rect width="24" height="24" fill="white" transform="translate(0.874023 0.5)"/>
</clipPath>
</defs>
</svg>
