<svg width="25" height="25" viewBox="0 0 25 25" fill="none" xmlns="http://www.w3.org/2000/svg">
<g clip-path="url(#clip0_2819_3946)">
<path d="M22.877 21.5C22.877 21.5 24.377 21.5 24.377 20C24.377 18.5 22.877 14 16.877 14C10.877 14 9.37695 18.5 9.37695 20C9.37695 21.5 10.877 21.5 10.877 21.5H22.877ZM10.91 20C10.8989 19.9985 10.8879 19.9965 10.877 19.994C10.8785 19.598 11.1275 18.449 12.017 17.414C12.845 16.4435 14.3 15.5 16.877 15.5C19.4525 15.5 20.9075 16.445 21.737 17.414C22.6265 18.449 22.874 19.5995 22.877 19.994L22.865 19.997C22.858 19.9982 22.851 19.9992 22.844 20H10.91ZM16.877 11C17.6726 11 18.4357 10.6839 18.9983 10.1213C19.5609 9.55871 19.877 8.79565 19.877 8C19.877 7.20435 19.5609 6.44129 18.9983 5.87868C18.4357 5.31607 17.6726 5 16.877 5C16.0813 5 15.3182 5.31607 14.7556 5.87868C14.193 6.44129 13.877 7.20435 13.877 8C13.877 8.79565 14.193 9.55871 14.7556 10.1213C15.3182 10.6839 16.0813 11 16.877 11ZM21.377 8C21.377 8.59095 21.2606 9.17611 21.0344 9.72208C20.8083 10.268 20.4768 10.7641 20.0589 11.182C19.6411 11.5998 19.145 11.9313 18.599 12.1575C18.0531 12.3836 17.4679 12.5 16.877 12.5C16.286 12.5 15.7008 12.3836 15.1549 12.1575C14.6089 11.9313 14.1128 11.5998 13.695 11.182C13.2771 10.7641 12.9456 10.268 12.7195 9.72208C12.4933 9.17611 12.377 8.59095 12.377 8C12.377 6.80653 12.8511 5.66193 13.695 4.81802C14.5389 3.97411 15.6835 3.5 16.877 3.5C18.0704 3.5 19.215 3.97411 20.0589 4.81802C20.9028 5.66193 21.377 6.80653 21.377 8ZM10.781 14.42C10.1809 14.2311 9.56241 14.1069 8.93595 14.0495C8.58395 14.016 8.23054 13.9995 7.87695 14C1.87695 14 0.376953 18.5 0.376953 20C0.376953 21.0005 0.876453 21.5 1.87695 21.5H8.20095C7.97859 21.0317 7.86769 20.5183 7.87695 20C7.87695 18.485 8.44245 16.937 9.51195 15.644C9.87645 15.203 10.301 14.7905 10.781 14.42ZM7.75695 15.5C6.86918 16.8339 6.38961 18.3977 6.37695 20H1.87695C1.87695 19.61 2.12295 18.455 3.01695 17.414C3.83445 16.46 5.25495 15.53 7.75695 15.5015V15.5ZM2.62695 8.75C2.62695 7.55653 3.10106 6.41193 3.94497 5.56802C4.78889 4.72411 5.93348 4.25 7.12695 4.25C8.32043 4.25 9.46502 4.72411 10.3089 5.56802C11.1528 6.41193 11.627 7.55653 11.627 8.75C11.627 9.94347 11.1528 11.0881 10.3089 11.932C9.46502 12.7759 8.32043 13.25 7.12695 13.25C5.93348 13.25 4.78889 12.7759 3.94497 11.932C3.10106 11.0881 2.62695 9.94347 2.62695 8.75ZM7.12695 5.75C6.3313 5.75 5.56824 6.06607 5.00563 6.62868C4.44302 7.19129 4.12695 7.95435 4.12695 8.75C4.12695 9.54565 4.44302 10.3087 5.00563 10.8713C5.56824 11.4339 6.3313 11.75 7.12695 11.75C7.9226 11.75 8.68566 11.4339 9.24827 10.8713C9.81088 10.3087 10.127 9.54565 10.127 8.75C10.127 7.95435 9.81088 7.19129 9.24827 6.62868C8.68566 6.06607 7.9226 5.75 7.12695 5.75Z" fill="#6F6F6F"/>
</g>
<defs>
<clipPath id="clip0_2819_3946">
<rect width="24" height="24" fill="white" transform="translate(0.376953 0.5)"/>
</clipPath>
</defs>
</svg>
